<svg xmlns="http://www.w3.org/2000/svg" width="22.001" height="21.99" viewBox="0 0 22.001 21.99">
  <g id="Bank" transform="translate(-39 -578.005)">
    <path id="Shape" d="M60.991,599a1,1,0,0,1-1,1H40a1,1,0,0,1,0-2H59.991A1,1,0,0,1,60.991,599Z" fill="#50ae42"/>
    <path id="Shape-2" data-name="Shape" d="M58.741,597.4H41.249a1,1,0,0,1,0-2h.25v-9h-.25a.5.5,0,0,1,0-1H58.741a.5.5,0,0,1,0,1h-.249v9h.249a1,1,0,0,1,0,2Zm-5.251-11v9h3v-9Zm-4.99,0v9h3v-9Zm-5,0v9h3v-9Z" fill="#50ae42"/>
    <path id="Shape-3" data-name="Shape" d="M39.022,583.713a1,1,0,0,1,.567-1.122l10-4.5a1,1,0,0,1,.82,0l9.919,4.463A1,1,0,0,1,60,584.5H40A1,1,0,0,1,39.022,583.713Z" fill="#50ae42"/>
  </g>
</svg>
