<svg xmlns="http://www.w3.org/2000/svg" width="21.542" height="22" viewBox="0 0 21.542 22">
  <g id="Buildings" transform="translate(-39 -738)">
    <path id="Shape" d="M59.562,760H39.98a.991.991,0,0,1-.98-1V749a.991.991,0,0,1,.98-1h4.65v-9a.991.991,0,0,1,.979-1H59.562a.992.992,0,0,1,.98,1v20A.991.991,0,0,1,59.562,760Zm-5.141-12.763-4.161,2.353V758h8.322v-8.411l-4.162-2.353h0ZM40.958,750v8H48.3v-8H40.958Zm5.63-10v8h2.439l4.919-2.782a.963.963,0,0,1,.949,0l3.687,2.084V740Z" fill="#977eaa"/>
    <path id="Shape-2" data-name="Shape" d="M43.9,751.5V753a.247.247,0,0,1-.245.25H42.182a.247.247,0,0,1-.245-.25v-1.5a.247.247,0,0,1,.245-.25h1.469A.247.247,0,0,1,43.9,751.5Z" fill="#977eaa"/>
    <path id="Shape-3" data-name="Shape" d="M47.323,751.5V753a.247.247,0,0,1-.245.25H45.61a.247.247,0,0,1-.245-.25v-1.5a.247.247,0,0,1,.245-.25h1.468A.247.247,0,0,1,47.323,751.5Z" fill="#977eaa"/>
    <path id="Shape-4" data-name="Shape" d="M43.9,755v1.5a.247.247,0,0,1-.245.25H42.182a.247.247,0,0,1-.245-.25V755a.247.247,0,0,1,.245-.25h1.469A.247.247,0,0,1,43.9,755Z" fill="#977eaa"/>
    <path id="Shape-5" data-name="Shape" d="M47.323,755v1.5a.247.247,0,0,1-.245.25H45.61a.247.247,0,0,1-.245-.25V755a.247.247,0,0,1,.245-.25h1.468A.247.247,0,0,1,47.323,755Z" fill="#977eaa"/>
    <path id="Shape-6" data-name="Shape" d="M53.688,751.5V753a.247.247,0,0,1-.245.25H51.974a.247.247,0,0,1-.244-.25v-1.5a.247.247,0,0,1,.244-.25h1.469A.247.247,0,0,1,53.688,751.5Z" fill="#977eaa"/>
    <path id="Shape-7" data-name="Shape" d="M55.156,753v-1.5a.247.247,0,0,1,.245-.25h1.469a.247.247,0,0,1,.244.25V753a.247.247,0,0,1-.244.25H55.4A.247.247,0,0,1,55.156,753Z" fill="#977eaa"/>
    <path id="Shape-8" data-name="Shape" d="M53.688,755v1.5a.247.247,0,0,1-.245.25H51.974a.247.247,0,0,1-.244-.25V755a.247.247,0,0,1,.244-.25h1.469A.247.247,0,0,1,53.688,755Z" fill="#977eaa"/>
    <path id="Shape-9" data-name="Shape" d="M55.156,756.5V755a.247.247,0,0,1,.245-.25h1.469a.247.247,0,0,1,.244.25v1.5a.246.246,0,0,1-.244.25H55.4A.247.247,0,0,1,55.156,756.5Z" fill="#977eaa"/>
    <path id="Shape-10" data-name="Shape" d="M48.3,743.344v-1.5a.247.247,0,0,1,.244-.25h1.469a.247.247,0,0,1,.245.25v1.5a.247.247,0,0,1-.245.25H48.547A.247.247,0,0,1,48.3,743.344Z" fill="#977eaa"/>
    <path id="Shape-11" data-name="Shape" d="M51.73,743.344v-1.5a.247.247,0,0,1,.244-.25h1.469a.247.247,0,0,1,.245.25v1.5a.247.247,0,0,1-.245.25H51.974A.246.246,0,0,1,51.73,743.344Z" fill="#977eaa"/>
    <path id="Shape-12" data-name="Shape" d="M48.547,747.094a.247.247,0,0,1-.244-.25v-1.5a.247.247,0,0,1,.244-.25h1.469a.247.247,0,0,1,.245.25v1.5a.247.247,0,0,1-.245.25Z" fill="#977eaa"/>
    <path id="Shape-13" data-name="Shape" d="M55.156,743.344v-1.5a.247.247,0,0,1,.245-.25h1.469a.247.247,0,0,1,.244.25v1.5a.247.247,0,0,1-.244.25H55.4A.247.247,0,0,1,55.156,743.344Z" fill="#977eaa"/>
  </g>
</svg>
