<svg xmlns="http://www.w3.org/2000/svg" width="18.776" height="21.999" viewBox="0 0 18.776 21.999">
  <g id="hot-cup-of-coffee" transform="translate(-41.112 -658)">
    <path id="Shape" d="M52.127,680H44.617a3.526,3.526,0,0,1-3.5-3.539V665.839a1.007,1.007,0,0,1,1-1.012h3.9c.113-.546-.231-1.018-.813-1.732-.907-1.109-2.149-2.629.192-4.951a.5.5,0,0,1,.649-.046.507.507,0,0,1,.146.64c-.352.685.043,1.184.771,2.008a4.213,4.213,0,0,1,1.209,2.054,2.648,2.648,0,0,1-.643,2.027h3c.114-.546-.231-1.018-.814-1.732-.906-1.11-2.148-2.63.194-4.951a.5.5,0,0,1,.648-.046.509.509,0,0,1,.147.64c-.353.685.042,1.184.77,2.008a4.218,4.218,0,0,1,1.209,2.054,2.648,2.648,0,0,1-.644,2.027h2.6a1.007,1.007,0,0,1,1,1.012v1.544a4.736,4.736,0,0,1,3.024,1.555,4.829,4.829,0,0,1-.013,6.458,4.732,4.732,0,0,1-3.048,1.545A3.527,3.527,0,0,1,52.127,680ZM44.62,667.36a1,1,0,0,0-1,1v7.61a1,1,0,0,0,2,0v-7.61A1,1,0,0,0,44.62,667.36Zm11.011,2.068h0v5.466a2.784,2.784,0,0,0,0-5.466Z" fill="#aa987e"/>
  </g>
</svg>
