<svg xmlns="http://www.w3.org/2000/svg" width="29.87" height="22.901" viewBox="0 0 29.87 22.901">
  <g id="Playstation_Logo" data-name="Playstation Logo" transform="translate(-35.069 -497.054)">
    <path id="Playstation" d="M51.152,519.954h0l-4.558-1.926V497.054h0l.016,0a35.941,35.941,0,0,1,5.106,1.327c2.416.838,5.443,2.278,6.147,4.378a6.616,6.616,0,0,1-.423,5.8c-.411.639-.841.951-1.084.976a4.5,4.5,0,0,1-.458.024,2.826,2.826,0,0,1-2.414-1.094V501.9l-2.261-.927-.072,18.975Zm1.184-.429h0v-2.459l9.4-3.246-2.441-1.07-6.928,1.6c-.008-.66-.021-2.193,0-2.211a18.955,18.955,0,0,1,5.744-1.32,3.618,3.618,0,0,1,.795-.082,8.18,8.18,0,0,1,3.667,1.062,4.9,4.9,0,0,1,2.3,2.066.757.757,0,0,1-.225.914c-1.553,1.3-12.2,4.709-12.312,4.744Zm-11.193-1.96h-.223c-2.508-.029-4.448-.563-5.323-1.466a1.745,1.745,0,0,1-.529-1.281c.017-.862,1.169-1.838,3.244-2.747a31.339,31.339,0,0,1,7.095-2v2.6L39.916,514.1c0,.005-.465.59-.3.943.079.17.289.261.624.271.139,0,.282.006.424.006a17.751,17.751,0,0,0,4.817-.684l-.036,2.247A10.626,10.626,0,0,1,41.144,517.565Z" fill="#47a8f6"/>
  </g>
</svg>
