<svg xmlns="http://www.w3.org/2000/svg" width="47.833" height="14.725" viewBox="0 0 47.833 14.725">
  <g id="Visa_Icon" data-name="Visa Icon" transform="translate(-60 -202.554)">
    <path id="Shape" d="M79.153,202.8l-2.431,14.266H80.61L83.043,202.8Z" fill="#fff"/>
    <path id="Shape-2" data-name="Shape" d="M77.581,202.812l-6.123,14.239-4.114.007-3.482-11.9a15.264,15.264,0,0,1,5.386,5.914l.406,1.469,3.808-9.729Z" fill="#fff"/>
    <path id="Shape-3" data-name="Shape" d="M69.083,210.138c-1.288-3.3-4.392-6.039-9.083-7.177l.05-.284h6.028a1.564,1.564,0,0,1,1.694,1.159Z" fill="#fff"/>
    <path id="Shape-4" data-name="Shape" d="M88.695,206.761c-.008.668.824,1.108,2.184,1.77,2.247,1.015,3.284,2.252,3.267,3.873-.028,2.963-2.684,4.875-6.771,4.875a12.314,12.314,0,0,1-4.332-.76l.547-3.193.5.228a8.162,8.162,0,0,0,3.661.747c1.117,0,2.313-.438,2.325-1.393.007-.625-.5-1.07-2.016-1.77-1.476-.683-3.43-1.827-3.4-3.876.021-2.773,2.729-4.708,6.571-4.708a10.039,10.039,0,0,1,3.483.6l-.526,3.092-.351-.165a7.174,7.174,0,0,0-2.91-.546C89.4,205.534,88.695,206.168,88.695,206.761Z" fill="#fff"/>
    <path id="Shape-5" data-name="Shape" d="M97.957,217.073H93.874L99.647,204a1.928,1.928,0,0,1,2.037-1.184h3l3.145,14.257h-3.606s-.353-1.619-.474-2.137l-2.731,0-2.248,0c-.15.381-.811,2.125-.817,2.143Zm4-10.409-.316.822-.015.038c-.147.383-.19.5-.19.5l-.01.025c-.29.748-1.259,3.246-1.539,3.96h3.23c-.154-.706-.893-4.085-.9-4.119Z" fill="#fff"/>
  </g>
</svg>
